<svg xmlns="http://www.w3.org/2000/svg" width="203.96000000000004" height="35" viewBox="0 0 203.96000000000004 35"><rect class="svg__rect" x="0" y="0" width="78.06" height="35" fill="#31C4F3"/><rect class="svg__rect" x="76.06" y="0" width="127.90000000000002" height="35" fill="#389AD5"/><path class="svg__text" d="M15.00 22L13.46 22L16.68 13.47L18.01 13.47L21.24 22L19.69 22L18.99 20.01L15.69 20.01L15.00 22ZM17.34 15.28L16.10 18.82L18.58 18.82L17.34 15.28ZM28.30 22L25.19 22L25.19 13.47L28.12 13.47Q29.56 13.47 30.32 14.05Q31.07 14.63 31.07 15.78L31.07 15.78Q31.07 16.36 30.76 16.83Q30.44 17.30 29.83 17.56L29.83 17.56Q30.52 17.75 30.90 18.26Q31.28 18.78 31.28 19.51L31.28 19.51Q31.28 20.71 30.51 21.36Q29.74 22 28.30 22L28.30 22ZM26.67 18.15L26.67 20.82L28.32 20.82Q29.02 20.82 29.41 20.47Q29.80 20.13 29.80 19.51L29.80 19.51Q29.80 18.18 28.44 18.15L28.44 18.15L26.67 18.15ZM26.67 14.66L26.67 17.06L28.13 17.06Q28.82 17.06 29.21 16.75Q29.60 16.43 29.60 15.86L29.60 15.86Q29.60 15.23 29.24 14.95Q28.88 14.66 28.12 14.66L28.12 14.66L26.67 14.66ZM38.86 22L35.75 22L35.75 13.47L38.67 13.47Q40.12 13.47 40.88 14.05Q41.63 14.63 41.63 15.78L41.63 15.78Q41.63 16.36 41.32 16.83Q41.00 17.30 40.39 17.56L40.39 17.56Q41.08 17.75 41.46 18.26Q41.84 18.78 41.84 19.51L41.84 19.51Q41.84 20.71 41.07 21.36Q40.30 22 38.86 22L38.86 22ZM37.23 18.15L37.23 20.82L38.88 20.82Q39.58 20.82 39.97 20.47Q40.36 20.13 40.36 19.51L40.36 19.51Q40.36 18.18 39.00 18.15L39.00 18.15L37.23 18.15ZM37.23 14.66L37.23 17.06L38.69 17.06Q39.38 17.06 39.77 16.75Q40.16 16.43 40.16 15.86L40.16 15.86Q40.16 15.23 39.80 14.95Q39.44 14.66 38.67 14.66L38.67 14.66L37.23 14.66ZM46.04 18.00L46.04 18.00L46.04 17.52Q46.04 16.28 46.48 15.32Q46.92 14.37 47.73 13.86Q48.54 13.35 49.58 13.35Q50.62 13.35 51.43 13.85Q52.23 14.35 52.67 15.29Q53.11 16.23 53.12 17.48L53.12 17.48L53.12 17.96Q53.12 19.21 52.68 20.16Q52.25 21.10 51.44 21.61Q50.64 22.12 49.59 22.12L49.59 22.12Q48.55 22.12 47.74 21.61Q46.93 21.10 46.49 20.17Q46.05 19.23 46.04 18.00ZM47.52 17.46L47.52 17.96Q47.52 19.36 48.07 20.13Q48.62 20.90 49.59 20.90L49.59 20.90Q50.57 20.90 51.10 20.15Q51.64 19.40 51.64 17.96L51.64 17.96L51.64 17.51Q51.64 16.09 51.10 15.34Q50.56 14.58 49.58 14.58L49.58 14.58Q48.62 14.58 48.08 15.33Q47.53 16.09 47.52 17.46L47.52 17.46ZM57.15 19.42L57.15 19.42L58.63 19.42Q58.63 20.15 59.11 20.55Q59.59 20.95 60.49 20.95L60.49 20.95Q61.26 20.95 61.65 20.63Q62.04 20.32 62.04 19.80L62.04 19.80Q62.04 19.24 61.65 18.94Q61.25 18.63 60.22 18.32Q59.19 18.01 58.58 17.63L58.58 17.63Q57.41 16.90 57.41 15.72L57.41 15.72Q57.41 14.69 58.25 14.02Q59.09 13.35 60.44 13.35L60.44 13.35Q61.33 13.35 62.02 13.68Q62.72 14.01 63.12 14.61Q63.52 15.22 63.52 15.96L63.52 15.96L62.04 15.96Q62.04 15.29 61.62 14.91Q61.20 14.54 60.42 14.54L60.42 14.54Q59.70 14.54 59.30 14.85Q58.89 15.16 58.89 15.71L58.89 15.71Q58.89 16.18 59.33 16.50Q59.76 16.81 60.76 17.10Q61.75 17.40 62.36 17.78Q62.96 18.16 63.24 18.65Q63.52 19.13 63.52 19.79L63.52 19.79Q63.52 20.86 62.71 21.49Q61.89 22.12 60.49 22.12L60.49 22.12Q59.56 22.12 58.79 21.77Q58.01 21.43 57.58 20.83Q57.15 20.22 57.15 19.42Z" fill="#FFFFFF"/><path class="svg__text" d="M92.04 15.48L89.46 15.48L89.46 13.60L96.98 13.60L96.98 15.48L94.41 15.48L94.41 22L92.04 22L92.04 15.48ZM101.28 18.26L101.28 18.26L101.28 13.60L103.66 13.60L103.66 18.19Q103.66 20.20 105.25 20.20L105.25 20.20Q106.84 20.20 106.84 18.19L106.84 18.19L106.84 13.60L109.18 13.60L109.18 18.26Q109.18 20.13 108.14 21.15Q107.10 22.17 105.23 22.17L105.23 22.17Q103.36 22.17 102.32 21.15Q101.28 20.13 101.28 18.26ZM116.64 22L114.27 22L114.27 13.60L118.11 13.60Q119.25 13.60 120.09 13.98Q120.93 14.35 121.38 15.06Q121.84 15.76 121.84 16.71L121.84 16.71Q121.84 17.62 121.41 18.30Q120.99 18.98 120.20 19.36L120.20 19.36L122.01 22L119.46 22L117.94 19.77L116.64 19.77L116.64 22ZM116.64 15.47L116.64 17.93L117.96 17.93Q118.70 17.93 119.07 17.61Q119.44 17.29 119.44 16.71L119.44 16.71Q119.44 16.12 119.07 15.79Q118.70 15.47 117.96 15.47L117.96 15.47L116.64 15.47ZM130.60 22L126.63 22L126.63 13.60L130.60 13.60Q131.98 13.60 133.05 14.12Q134.12 14.63 134.71 15.58Q135.29 16.53 135.29 17.80L135.29 17.80Q135.29 19.07 134.71 20.02Q134.12 20.97 133.05 21.48Q131.98 22 130.60 22L130.60 22ZM129.01 15.50L129.01 20.10L130.51 20.10Q131.59 20.10 132.24 19.49Q132.89 18.88 132.89 17.80L132.89 17.80Q132.89 16.72 132.24 16.11Q131.59 15.50 130.51 15.50L130.51 15.50L129.01 15.50ZM141.44 22L139.02 22L142.72 13.60L145.07 13.60L148.78 22L146.32 22L145.65 20.37L142.10 20.37L141.44 22ZM143.88 15.93L142.79 18.61L144.96 18.61L143.88 15.93ZM159.32 22L152.94 22L152.94 13.60L155.32 13.60L155.32 20.11L159.32 20.11L159.32 22ZM166.12 22L163.74 22L163.74 13.60L166.12 13.60L166.12 22ZM178.04 22L171.29 22L171.29 13.60L177.89 13.60L177.89 15.44L173.65 15.44L173.65 16.85L177.38 16.85L177.38 18.63L173.65 18.63L173.65 20.17L178.04 20.17L178.04 22ZM185.43 22L181.84 13.60L184.41 13.60L186.69 19.07L189.01 13.60L191.36 13.60L187.77 22L185.43 22Z" fill="#FFFFFF" x="89.06"/></svg>